<svg xmlns="http://www.w3.org/2000/svg" viewBox="0 0 200 200" class="w-full h-full">
  <!-- Polkadot Acak dengan Lebih Banyak Titik -->
  <circle cx="30" cy="30" r="3" fill="white" fill-opacity="0.2"/>
  <circle cx="120" cy="50" r="5" fill="white" fill-opacity="0.15"/>
  <circle cx="70" cy="100" r="4" fill="white" fill-opacity="0.18"/>
  <circle cx="150" cy="120" r="3" fill="white" fill-opacity="0.1"/>
  <circle cx="40" cy="160" r="6" fill="white" fill-opacity="0.25"/>
  <circle cx="110" cy="180" r="4" fill="white" fill-opacity="0.15"/>
  <circle cx="180" cy="70" r="5" fill="white" fill-opacity="0.2"/>
  <circle cx="90" cy="30" r="4" fill="white" fill-opacity="0.2"/>
  <circle cx="25" cy="140" r="7" fill="white" fill-opacity="0.1"/>
  <circle cx="160" cy="30" r="4" fill="white" fill-opacity="0.18"/>
  <circle cx="50" cy="50" r="5" fill="white" fill-opacity="0.2"/>
  <circle cx="140" cy="80" r="6" fill="white" fill-opacity="0.15"/>
  <circle cx="90" cy="160" r="4" fill="white" fill-opacity="0.2"/>
  <circle cx="70" cy="50" r="5" fill="white" fill-opacity="0.1"/>
  <circle cx="130" cy="170" r="4" fill="white" fill-opacity="0.18"/>
  <circle cx="20" cy="50" r="3" fill="white" fill-opacity="0.2"/>
  <circle cx="160" cy="150" r="5" fill="white" fill-opacity="0.25"/>
  <circle cx="110" cy="70" r="6" fill="white" fill-opacity="0.2"/>
  <circle cx="180" cy="140" r="4" fill="white" fill-opacity="0.2"/>
  <circle cx="50" cy="130" r="6" fill="white" fill-opacity="0.2"/>
  <circle cx="135" cy="90" r="4" fill="white" fill-opacity="0.18"/>
  <circle cx="75" cy="160" r="5" fill="white" fill-opacity="0.15"/>
  <circle cx="155" cy="80" r="6" fill="white" fill-opacity="0.1"/>
  <circle cx="120" cy="130" r="5" fill="white" fill-opacity="0.2"/>
  <circle cx="60" cy="40" r="3" fill="white" fill-opacity="0.15"/>
  <circle cx="100" cy="50" r="4" fill="white" fill-opacity="0.18"/>
  <circle cx="140" cy="110" r="6" fill="white" fill-opacity="0.15"/>
  <circle cx="30" cy="80" r="5" fill="white" fill-opacity="0.2"/>
  <circle cx="160" cy="120" r="3" fill="white" fill-opacity="0.18"/>
  <circle cx="75" cy="50" r="4" fill="white" fill-opacity="0.2"/>
  <circle cx="20" cy="120" r="6" fill="white" fill-opacity="0.1"/>
  <circle cx="170" cy="30" r="4" fill="white" fill-opacity="0.15"/>
  <circle cx="40" cy="90" r="5" fill="white" fill-opacity="0.2"/>
  <circle cx="110" cy="40" r="3" fill="white" fill-opacity="0.15"/>
  <circle cx="140" cy="160" r="5" fill="white" fill-opacity="0.1"/>
  <circle cx="50" cy="110" r="6" fill="white" fill-opacity="0.2"/>
  <circle cx="125" cy="150" r="4" fill="white" fill-opacity="0.2"/>
  <circle cx="180" cy="60" r="5" fill="white" fill-opacity="0.25"/>
  <circle cx="80" cy="180" r="4" fill="white" fill-opacity="0.2"/>
  <circle cx="30" cy="150" r="6" fill="white" fill-opacity="0.1"/>
  <circle cx="70" cy="40" r="3" fill="white" fill-opacity="0.18"/>
</svg>
